<svg width="24" height="24" viewBox="0 0 24 24" fill="none" xmlns="http://www.w3.org/2000/svg">
  <path d="M12 2C6.48 2 2 6.48 2 12s4.48 10 10 10 10-4.48 10-10S17.52 2 12 2Zm-1 17c-2.21 0-4-1.79-4-4 0-1.1.9-2 2-2h2v6Zm2 0v-6h2c1.1 0 2 .9 2 2 0 2.21-1.79 4-4 4ZM6.07 17.66C4.83 16.22 4 14.21 4 12c0-2.21.83-4.22 2.07-5.66C6.03 6.9 6 7.45 6 8c0 1.97.82 3.75 2.14 5H6.07Zm11.86 0h-2.07c1.32-1.25 2.14-3.03 2.14-5 0-.55-.03-1.1-.07-1.66C19.17 7.78 20 9.79 20 12c0 2.21-.83 4.22-2.07 5.66ZM12 4c2.21 0 4 1.79 4 4 0 .55-.45 1-1 1h-6c-.55 0-1-.45-1-1 0-2.21 1.79-4 4-4Z" fill="currentColor"/>
</svg>
